<?xml version="1.0" encoding="utf-8"?>
<!-- Generator: Adobe Illustrator 25.0.0, SVG Export Plug-In . SVG Version: 6.00 Build 0)  -->
<svg version="1.1" id="Capa_1" xmlns="http://www.w3.org/2000/svg" xmlns:xlink="http://www.w3.org/1999/xlink" x="0px" y="0px"
	 viewBox="0 0 170 170" style="enable-background:new 0 0 170 170;" xml:space="preserve">
<style type="text/css">
	.st0{fill:#FFE6B4;}
</style>
<g id="Comment_2_Outline">
	<path class="st0" d="M146.2,13.78H51.76H23.8C10.71,13.78,0,24.32,0,37.19v69.67c0,12.88,10.71,23.41,23.8,23.41h66l41.99,32.26
		v-32.26h14.4c13.09,0,23.8-10.53,23.8-23.41V37.19C170,24.32,159.29,13.78,146.2,13.78z M159.38,106.86
		c0,7.05-5.91,12.79-13.18,12.79h-14.4c-5.87,0-10.62,4.76-10.62,10.62v10.7l-24.89-19.12c-1.86-1.43-4.13-2.2-6.47-2.2h-66
		c-7.27,0-13.18-5.74-13.18-12.79V37.19c0-7.05,5.91-12.79,13.18-12.79h27.96h94.43c7.27,0,13.18,5.74,13.18,12.79V106.86z"/>
	<path class="st0" d="M130.16,50.97H39.84c-2.93,0-5.31,2.38-5.31,5.31s2.38,5.31,5.31,5.31h90.31c2.93,0,5.31-2.38,5.31-5.31
		S133.09,50.97,130.16,50.97z"/>
	<path class="st0" d="M130.16,82.84H39.84c-2.93,0-5.31,2.38-5.31,5.31s2.38,5.31,5.31,5.31h90.31c2.93,0,5.31-2.38,5.31-5.31
		S133.09,82.84,130.16,82.84z"/>
</g>
</svg>
