<?xml version="1.0" encoding="utf-8"?>
<!-- Generator: Adobe Illustrator 25.0.0, SVG Export Plug-In . SVG Version: 6.00 Build 0)  -->
<svg version="1.1" id="Capa_1" xmlns="http://www.w3.org/2000/svg" xmlns:xlink="http://www.w3.org/1999/xlink" x="0px" y="0px"
	 viewBox="0 0 170 170" style="enable-background:new 0 0 170 170;" xml:space="preserve">
<style type="text/css">
	.st0{fill:#FFE6B4;}
</style>
<path id="Mail_2_Outline" class="st0" d="M143.53,23.8H26.66C12.05,23.8,0.1,35.75,0.1,50.36v69.06c0,14.61,11.95,26.56,26.56,26.56
	h116.87c14.61,0,26.56-11.95,26.56-26.56V50.36C170.09,35.75,158.14,23.8,143.53,23.8z M159.47,119.42c0,2.23-0.47,4.35-1.3,6.28
	l-45.82-45.01l43.86-37.12c0.43-0.36,0.71-0.81,0.99-1.26c1.4,2.37,2.26,5.1,2.26,8.04v69.07H159.47z M143.53,34.42
	c2.03,0,3.95,0.42,5.74,1.11L83.72,91L19.17,36.38c2.24-1.21,4.77-1.95,7.48-1.95h116.88V34.42z M12.32,126.25
	c-0.99-2.08-1.6-4.38-1.6-6.83V50.36c0-2.19,0.45-4.27,1.24-6.17L56.6,81.97L12.32,126.25z M26.66,135.36c-2.45,0-4.75-0.6-6.83-1.6
	l44.91-44.91l15.55,13.16c0.99,0.84,2.21,1.26,3.43,1.26s2.44-0.42,3.43-1.26l17.05-14.43l46.71,45.88c-2.22,1.17-4.7,1.9-7.38,1.9
	L26.66,135.36L26.66,135.36z"/>
</svg>
