<?xml version="1.0" encoding="utf-8"?>
<!-- Generator: Adobe Illustrator 25.0.0, SVG Export Plug-In . SVG Version: 6.00 Build 0)  -->
<svg version="1.1" id="Capa_1" xmlns="http://www.w3.org/2000/svg" xmlns:xlink="http://www.w3.org/1999/xlink" x="0px" y="0px"
	 viewBox="0 0 170 170" style="enable-background:new 0 0 170 170;" xml:space="preserve">
<style type="text/css">
	.st0{fill:#FFE6B4;}
</style>
<path class="st0" d="M169.64,49.87c-0.4-9.03-1.86-15.24-3.95-20.62c-2.16-5.71-5.48-10.83-9.83-15.08
	c-4.25-4.32-9.4-7.67-15.04-9.8c-5.41-2.09-11.59-3.55-20.62-3.95c-9.1-0.43-11.99-0.53-35.07-0.53s-25.97,0.1-35.04,0.5
	c-9.03,0.4-15.24,1.86-20.62,3.95c-5.71,2.16-10.83,5.48-15.08,9.83c-4.32,4.25-7.67,9.4-9.8,15.04C2.5,34.63,1.04,40.81,0.64,49.84
	c-0.43,9.1-0.53,11.99-0.53,35.07s0.1,25.97,0.5,35.04c0.4,9.03,1.86,15.24,3.95,20.62c2.16,5.71,5.51,10.83,9.83,15.08
	c4.25,4.32,9.4,7.67,15.04,9.8c5.41,2.09,11.59,3.55,20.62,3.95c9.07,0.4,11.96,0.5,35.04,0.5s25.97-0.1,35.04-0.5
	c9.03-0.4,15.24-1.86,20.62-3.95c11.42-4.42,20.46-13.45,24.87-24.87c2.09-5.41,3.55-11.59,3.95-20.62c0.4-9.07,0.5-11.96,0.5-35.04
	S170.04,58.94,169.64,49.87z M154.33,119.28c-0.37,8.3-1.76,12.79-2.92,15.77c-2.86,7.41-8.73,13.28-16.14,16.14
	c-2.99,1.16-7.5,2.56-15.77,2.92c-8.97,0.4-11.66,0.5-34.34,0.5s-25.41-0.1-34.34-0.5c-8.3-0.36-12.79-1.76-15.77-2.92
	c-3.69-1.36-7.04-3.52-9.76-6.34c-2.82-2.76-4.98-6.08-6.34-9.76c-1.16-2.99-2.56-7.51-2.92-15.77c-0.4-8.97-0.5-11.66-0.5-34.34
	s0.1-25.41,0.5-34.34c0.36-8.3,1.76-12.79,2.92-15.77c1.36-3.69,3.52-7.04,6.38-9.76c2.76-2.82,6.08-4.98,9.76-6.34
	c2.99-1.16,7.51-2.56,15.77-2.92c8.97-0.4,11.66-0.5,34.34-0.5c22.72,0,25.41,0.1,34.34,0.5c8.3,0.37,12.79,1.76,15.77,2.92
	c3.69,1.36,7.04,3.52,9.76,6.34c2.82,2.76,4.98,6.08,6.34,9.76c1.16,2.99,2.56,7.5,2.92,15.77c0.4,8.97,0.5,11.66,0.5,34.34
	S154.73,110.31,154.33,119.28z"/>
<path class="st0" d="M85.12,41.24c-24.11,0-43.67,19.56-43.67,43.67s19.56,43.67,43.67,43.67c24.11,0,43.67-19.56,43.67-43.67
	S109.23,41.24,85.12,41.24z M85.12,113.24c-15.64,0-28.33-12.69-28.33-28.33s12.69-28.33,28.33-28.33
	c15.64,0,28.33,12.69,28.33,28.33S100.77,113.24,85.12,113.24z"/>
<path class="st0" d="M140.72,39.51c0,5.63-4.57,10.2-10.2,10.2c-5.63,0-10.2-4.57-10.2-10.2c0-5.63,4.57-10.2,10.2-10.2
	C136.15,29.32,140.72,33.88,140.72,39.51z"/>
</svg>
