<?xml version="1.0" encoding="utf-8"?>
<!-- Generator: Adobe Illustrator 25.0.0, SVG Export Plug-In . SVG Version: 6.00 Build 0)  -->
<svg version="1.1" id="Capa_1" xmlns="http://www.w3.org/2000/svg" xmlns:xlink="http://www.w3.org/1999/xlink" x="0px" y="0px"
	 viewBox="0 0 170 170" style="enable-background:new 0 0 170 170;" xml:space="preserve">
<style type="text/css">
	.st0{fill:#FFE6B4;}
</style>
<path id="Home_Outline" class="st0" d="M85.12,10.52c0.71,0,2.02,0.15,3.15,1.06c0.12,0.14,0.25,0.27,0.38,0.41
	c0.19,0.2,0.39,0.39,0.59,0.57c0.18,0.16,0.37,0.32,0.56,0.47l68.34,65.67c0.2,0.19,0.38,0.38,0.55,0.6
	c0.04,0.06,0.08,0.12,0.11,0.17c0.09,0.13,0.17,0.26,0.23,0.38c0.05,0.15,0.1,0.3,0.14,0.41c0.05,0.13,0.1,0.26,0.14,0.38l0.04,0.51
	c0.02,0.22,0.04,0.43,0.08,0.67c-0.05,0.7-0.32,1.61-1.18,2.44c-0.55,0.53-1.31,0.89-2.28,1.09c-5.62,1.16-9.3,6.57-8.32,12.22
	c0.07,0.4,0.1,0.73,0.1,0.98v54.25c0,3.51-3.28,6.47-7.17,6.47h-14.07c-3.88,0-7.17-2.96-7.17-6.47v-17.16v-12.5
	c0-15.29-12.75-27.72-28.42-27.72H79.23c-15.67,0-28.42,12.44-28.42,27.72v12.5v17.16c0,3.51-3.28,6.47-7.17,6.47H29.58
	c-3.88,0-7.17-2.96-7.17-6.47V98.55c0-0.25,0.04-0.58,0.11-0.98c0.98-5.64-2.68-11.04-8.28-12.22c-0.96-0.2-1.72-0.57-2.26-1.09
	c-0.13-0.13-0.36-0.41-0.75-1.13c-0.34-0.61-0.51-1.18-0.51-1.68c0-1.38,0.91-2.37,1.45-2.84c0.14-0.12,0.28-0.25,0.42-0.38
	l69.1-66.39C82.87,10.69,84.35,10.52,85.12,10.52 M85.12-0.11c-3.92,0-7.84,1.43-10.81,4.28L5.22,70.57
	c-3.12,2.69-5.13,6.56-5.13,10.88c0,2.48,0.71,4.78,1.85,6.83c0.7,1.3,1.55,2.55,2.68,3.64c2.11,2.03,4.71,3.25,7.43,3.82
	c-0.16,0.92-0.26,1.85-0.26,2.81v54.25c0,9.4,8.01,17.1,17.79,17.1h14.07c9.79,0,17.79-7.69,17.79-17.1v-17.16v-12.5
	c0-9.4,8.01-17.1,17.79-17.1h11.72c9.79,0,17.79,7.69,17.79,17.1v12.5v17.16c0,9.4,8.01,17.1,17.79,17.1h14.07
	c9.79,0,17.79-7.69,17.79-17.1V98.55c0-0.95-0.1-1.88-0.26-2.79c2.75-0.57,5.37-1.79,7.5-3.84c2.98-2.87,4.47-6.65,4.45-10.43
	c0-0.01,0-0.03,0-0.04c0-0.43-0.1-0.84-0.13-1.27c-0.05-0.5-0.06-1.01-0.16-1.51c-0.15-0.75-0.4-1.45-0.66-2.16
	c-0.07-0.19-0.1-0.38-0.18-0.56c-0.36-0.85-0.8-1.65-1.31-2.41c-0.02-0.04-0.04-0.07-0.06-0.11c-0.64-0.93-1.38-1.78-2.22-2.56
	L96.77,4.98c-0.14-0.14-0.31-0.23-0.46-0.36c-0.14-0.14-0.23-0.3-0.38-0.44C92.96,1.32,89.04-0.11,85.12-0.11L85.12-0.11z"/>
</svg>
