<?xml version="1.0" encoding="utf-8"?>
<!-- Generator: Adobe Illustrator 25.0.0, SVG Export Plug-In . SVG Version: 6.00 Build 0)  -->
<svg version="1.1" id="Capa_1" xmlns="http://www.w3.org/2000/svg" xmlns:xlink="http://www.w3.org/1999/xlink" x="0px" y="0px"
	 viewBox="0 0 170 170" style="enable-background:new 0 0 170 170;" xml:space="preserve">
<style type="text/css">
	.st0{fill:#FFE6B4;}
</style>
<g id="Pages_Outline">
	<path class="st0" d="M102.77,64.02H53c-2.17,0-3.93,2.58-3.93,5.76s1.76,5.76,3.93,5.76h49.78c2.17,0,3.93-2.58,3.93-5.76
		S104.95,64.02,102.77,64.02z"/>
	<path class="st0" d="M102.77,87.08H53c-2.17,0-3.93,2.58-3.93,5.76c0,3.18,1.76,5.76,3.93,5.76h49.78c2.17,0,3.93-2.58,3.93-5.76
		C106.71,89.66,104.95,87.08,102.77,87.08z"/>
	<path class="st0" d="M102.77,110.14H53c-2.17,0-3.93,2.58-3.93,5.76s1.76,5.76,3.93,5.76h49.78c2.17,0,3.93-2.58,3.93-5.76
		S104.95,110.14,102.77,110.14z"/>
	<path class="st0" d="M135.53,128.24V33.7L102.44,0.61H40.99c-13,0-23.63,10.64-23.63,23.63v103.99c0,6.5,2.66,12.41,6.94,16.69
		c4.28,4.28,10.19,6.94,16.69,6.94h70.9C124.9,151.88,135.53,141.24,135.53,128.24z M106.26,19.45l16.2,16.2h-16.2V19.45z
		 M31.81,137.42c-2.47-2.47-3.83-5.73-3.83-9.18V24.25c0-7.17,5.84-13.01,13.01-13.01h54.82c-0.05,0.31-0.18,0.58-0.18,0.91v28.82
		c0,2.93,2.38,5.31,5.31,5.31h23.96v81.96c0,7.17-5.84,13.01-13.01,13.01h-70.9C37.54,141.25,34.29,139.89,31.81,137.42z"/>
	<path class="st0" d="M147.51,40.37c-2.93,0-5.31,2.38-5.31,5.31v94.54c0,10.1-8.22,18.32-18.32,18.32H52.97
		c-2.93,0-5.31,2.38-5.31,5.31s2.38,5.31,5.31,5.31h70.91c15.96,0,28.95-12.99,28.95-28.95V45.68
		C152.82,42.75,150.45,40.37,147.51,40.37z"/>
</g>
</svg>
