<?xml version="1.0" encoding="utf-8"?>
<!-- Generator: Adobe Illustrator 25.0.0, SVG Export Plug-In . SVG Version: 6.00 Build 0)  -->
<svg version="1.1" id="Capa_1" xmlns="http://www.w3.org/2000/svg" xmlns:xlink="http://www.w3.org/1999/xlink" x="0px" y="0px"
	 viewBox="0 0 170 170" style="enable-background:new 0 0 170 170;" xml:space="preserve">
<style type="text/css">
	.st0{fill:#FFE6B4;}
</style>
<g id="Cart_Outline">
	<path class="st0" d="M163.96,62.39c-0.99-1.43-2.63-2.29-4.37-2.29H85.22c-2.93,0-5.31,2.38-5.31,5.31s2.38,5.31,5.31,5.31h66.69
		l-14.46,38.34H44.98l-5.01-67.37c-0.1-1.29-0.66-2.5-1.58-3.4L14.57,14.96c-2.1-2.05-5.46-2.01-7.51,0.08
		C5,17.14,5.04,20.5,7.13,22.55l22.4,21.93l5.22,70.29c0.2,2.77,2.52,4.92,5.3,4.92h101.08c2.21,0,4.19-1.37,4.97-3.44l18.46-48.97
		C165.18,65.65,164.96,63.82,163.96,62.39z"/>
	<circle class="st0" cx="57.76" cy="141.72" r="15.16"/>
	<path class="st0" d="M125.13,126.56c-8.37,0-15.16,6.79-15.16,15.16c0,8.37,6.79,15.16,15.16,15.16c8.37,0,15.16-6.79,15.16-15.16
		C140.29,133.34,133.51,126.56,125.13,126.56z"/>
</g>
</svg>
