<?xml version="1.0" encoding="utf-8"?>
<!-- Generator: Adobe Illustrator 25.0.0, SVG Export Plug-In . SVG Version: 6.00 Build 0)  -->
<svg version="1.1" id="Capa_1" xmlns="http://www.w3.org/2000/svg" xmlns:xlink="http://www.w3.org/1999/xlink" x="0px" y="0px"
	 viewBox="0 0 170 170" style="enable-background:new 0 0 170 170;" xml:space="preserve">
<style type="text/css">
	.st0{fill:#FFE6B4;}
</style>
<g>
	<path class="st0" d="M59.21,69.05c0.82-3.83,1.24-5.98,1.74-8.1c4.63-19.73,16.44-33.37,35.7-39.46
		c19.64-6.21,37.52-1.93,52.58,12.36c9.57,9.08,17.02,19.58,19.91,32.78c1.96,8.95,0.64,17.22-4.5,24.95
		c-11.5,17.3-24.16,33.55-40.9,46.18c-8.14,6.14-17.12,10.59-27.19,12.62c-12.1,2.44-23.41-0.2-34.24-5.53
		c-16.74-8.24-29.74-21.06-41.94-34.77c-5.21-5.86-10.22-11.96-14.79-18.33c-9.31-12.99-6.66-30.15,5.69-39.24
		c12.6-9.27,29.73-6.56,39.63,6.23C53.26,61.78,55.74,64.75,59.21,69.05z M93.34,104.05c-5.02,4.44-10.43,5.74-15.8,2.73
		c-6.2-3.48-12.59-7.21-17.59-12.15C50.49,85.29,41.9,75.08,33.1,65.11c-4.54-5.14-10.55-6.39-15.39-2.78
		c-4.85,3.61-6.15,9.71-2.27,14.98c13.22,17.98,27.67,34.92,47.3,46.21c5.72,3.29,12.65,5.21,19.24,6.06
		c11.64,1.49,21.15-4.48,29.83-11.39c14.18-11.31,25.28-25.41,34.8-40.7c1.71-2.74,2.21-6.91,1.74-10.21
		c-1.29-9.13-6.59-16.34-12.77-22.9c-14.45-15.34-36.4-16.44-51.35-2.63c-14.42,13.33-14.97,35.17-1.26,50.69
		C86.34,96.24,89.74,100.02,93.34,104.05z"/>
	<path class="st0" d="M94.88,68.67c-0.03-11.41,11.23-18.1,20.44-13.02c9.57,5.27,11.4,13.34,4.9,21.92c-2.27,2.99-4.56,6-7.14,8.72
		c-0.82,0.87-3.38,1.58-3.82,1.11c-4.74-5.05-9.29-10.28-13.7-15.63C94.81,70.84,94.98,69.15,94.88,68.67z"/>
</g>
</svg>
