<?xml version="1.0" encoding="utf-8"?>
<!-- Generator: Adobe Illustrator 25.0.0, SVG Export Plug-In . SVG Version: 6.00 Build 0)  -->
<svg version="1.1" id="Capa_1" xmlns="http://www.w3.org/2000/svg" xmlns:xlink="http://www.w3.org/1999/xlink" x="0px" y="0px"
	 viewBox="0 0 170 170" style="enable-background:new 0 0 170 170;" xml:space="preserve">
<style type="text/css">
	.st0{fill:#9588A6;}
</style>
<g id="Comment_2_Outline">
	<path class="st0" d="M146.2,13.8H51.8h-28C10.7,13.8,0,24.3,0,37.2v69.7c0,12.9,10.7,23.4,23.8,23.4h66l42,32.3v-32.3h14.4
		c13.1,0,23.8-10.5,23.8-23.4V37.2C170,24.3,159.3,13.8,146.2,13.8z M159.4,106.9c0,7.1-5.9,12.8-13.2,12.8h-14.4
		c-5.9,0-10.6,4.8-10.6,10.6V141l-24.9-19.1c-1.9-1.4-4.1-2.2-6.5-2.2h-66c-7.3,0-13.2-5.7-13.2-12.8V37.2c0-7,5.9-12.8,13.2-12.8
		h28h94.4c7.3,0,13.2,5.7,13.2,12.8L159.4,106.9L159.4,106.9z"/>
	<path class="st0" d="M130.2,51H39.8c-2.9,0-5.3,2.4-5.3,5.3s2.4,5.3,5.3,5.3h90.3c2.9,0,5.3-2.4,5.3-5.3S133.1,51,130.2,51z"/>
	<path class="st0" d="M130.2,82.8H39.8c-2.9,0-5.3,2.4-5.3,5.3s2.4,5.3,5.3,5.3h90.3c2.9,0,5.3-2.4,5.3-5.3S133.1,82.8,130.2,82.8z"
		/>
</g>
</svg>
