<?xml version="1.0" encoding="utf-8"?>
<!-- Generator: Adobe Illustrator 25.0.0, SVG Export Plug-In . SVG Version: 6.00 Build 0)  -->
<svg version="1.1" id="Capa_1" xmlns="http://www.w3.org/2000/svg" xmlns:xlink="http://www.w3.org/1999/xlink" x="0px" y="0px"
	 viewBox="0 0 170 170" style="enable-background:new 0 0 170 170;" xml:space="preserve">
<style type="text/css">
	.st0{fill:#9588A6;}
</style>
<path id="Mail_2_Outline" class="st0" d="M143.5,23.8H26.7c-14.6,0-26.6,12-26.6,26.6v69.1C0.1,134,12.1,146,26.7,146h116.9
	c14.6,0,26.6-11.9,26.6-26.6V50.4C170.1,35.8,158.1,23.8,143.5,23.8z M159.5,119.4c0,2.2-0.5,4.3-1.3,6.3l-45.8-45l43.9-37.1
	c0.4-0.4,0.7-0.8,1-1.3c1.4,2.4,2.3,5.1,2.3,8L159.5,119.4C159.5,119.4,159.5,119.4,159.5,119.4z M143.5,34.4c2,0,3.9,0.4,5.7,1.1
	L83.7,91L19.2,36.4c2.2-1.2,4.8-2,7.5-2L143.5,34.4L143.5,34.4z M12.3,126.2c-1-2.1-1.6-4.4-1.6-6.8V50.4c0-2.2,0.4-4.3,1.2-6.2
	L56.6,82L12.3,126.2z M26.7,135.4c-2.5,0-4.8-0.6-6.8-1.6l44.9-44.9L80.3,102c1,0.8,2.2,1.3,3.4,1.3s2.4-0.4,3.4-1.3l17-14.4
	l46.7,45.9c-2.2,1.2-4.7,1.9-7.4,1.9L26.7,135.4L26.7,135.4z"/>
</svg>
