<?xml version="1.0" encoding="utf-8"?>
<!-- Generator: Adobe Illustrator 25.0.0, SVG Export Plug-In . SVG Version: 6.00 Build 0)  -->
<svg version="1.1" id="Capa_1" xmlns="http://www.w3.org/2000/svg" xmlns:xlink="http://www.w3.org/1999/xlink" x="0px" y="0px"
	 viewBox="0 0 170 170" style="enable-background:new 0 0 170 170;" xml:space="preserve">
<style type="text/css">
	.st0{fill:#9588A6;}
</style>
<path class="st0" d="M169.6,49.9c-0.4-9-1.9-15.2-3.9-20.6c-2.2-5.7-5.5-10.8-9.8-15.1c-4.2-4.3-9.4-7.7-15-9.8
	c-5.4-2.1-11.6-3.5-20.6-4c-9.1-0.4-12-0.5-35.1-0.5s-26,0.1-35,0.5c-9,0.4-15.2,1.9-20.6,4c-5.7,2.2-10.8,5.5-15.1,9.8
	c-4.3,4.2-7.7,9.4-9.8,15c-2.1,5.4-3.5,11.6-4,20.6c-0.4,9.1-0.5,12-0.5,35.1s0.1,26,0.5,35c0.4,9,1.9,15.2,4,20.6
	c2.2,5.7,5.5,10.8,9.8,15.1c4.2,4.3,9.4,7.7,15,9.8c5.4,2.1,11.6,3.6,20.6,3.9c9.1,0.4,12,0.5,35,0.5s26-0.1,35-0.5
	c9-0.4,15.2-1.9,20.6-3.9c11.4-4.4,20.5-13.4,24.9-24.9c2.1-5.4,3.6-11.6,3.9-20.6c0.4-9.1,0.5-12,0.5-35S170,58.9,169.6,49.9z
	 M154.3,119.3c-0.4,8.3-1.8,12.8-2.9,15.8c-2.9,7.4-8.7,13.3-16.1,16.1c-3,1.2-7.5,2.6-15.8,2.9c-9,0.4-11.7,0.5-34.3,0.5
	s-25.4-0.1-34.3-0.5c-8.3-0.4-12.8-1.8-15.8-2.9c-3.7-1.4-7-3.5-9.8-6.3c-2.8-2.8-5-6.1-6.3-9.8c-1.2-3-2.6-7.5-2.9-15.8
	c-0.4-9-0.5-11.7-0.5-34.3s0.1-25.4,0.5-34.3c0.4-8.3,1.8-12.8,2.9-15.8c1.4-3.7,3.5-7,6.4-9.8c2.8-2.8,6.1-5,9.8-6.3
	c3-1.2,7.5-2.6,15.8-2.9c9-0.4,11.7-0.5,34.3-0.5c22.7,0,25.4,0.1,34.3,0.5c8.3,0.4,12.8,1.8,15.8,2.9c3.7,1.4,7,3.5,9.8,6.3
	c2.8,2.8,5,6.1,6.3,9.8c1.2,3,2.6,7.5,2.9,15.8c0.4,9,0.5,11.7,0.5,34.3S154.7,110.3,154.3,119.3z"/>
<path class="st0" d="M85.1,41.2c-24.1,0-43.7,19.6-43.7,43.7s19.6,43.7,43.7,43.7s43.7-19.6,43.7-43.7S109.2,41.2,85.1,41.2z
	 M85.1,113.2c-15.6,0-28.3-12.7-28.3-28.3s12.7-28.3,28.3-28.3s28.3,12.7,28.3,28.3S100.8,113.2,85.1,113.2z"/>
<path class="st0" d="M140.7,39.5c0,5.6-4.6,10.2-10.2,10.2c-5.6,0-10.2-4.6-10.2-10.2s4.6-10.2,10.2-10.2
	C136.1,29.3,140.7,33.9,140.7,39.5z"/>
</svg>
