<?xml version="1.0" encoding="utf-8"?>
<!-- Generator: Adobe Illustrator 25.0.0, SVG Export Plug-In . SVG Version: 6.00 Build 0)  -->
<svg version="1.1" id="Capa_1" xmlns="http://www.w3.org/2000/svg" xmlns:xlink="http://www.w3.org/1999/xlink" x="0px" y="0px"
	 viewBox="0 0 170 170" style="enable-background:new 0 0 170 170;" xml:space="preserve">
<style type="text/css">
	.st0{fill:#9588A6;}
</style>
<path id="Home_Outline" class="st0" d="M85.1,10.5c0.7,0,2,0.1,3.2,1.1c0.1,0.1,0.2,0.3,0.4,0.4c0.2,0.2,0.4,0.4,0.6,0.6
	c0.2,0.2,0.4,0.3,0.6,0.5l68.3,65.7c0.2,0.2,0.4,0.4,0.6,0.6c0,0.1,0.1,0.1,0.1,0.2c0.1,0.1,0.2,0.3,0.2,0.4
	c0.1,0.2,0.1,0.3,0.1,0.4c0.1,0.1,0.1,0.3,0.1,0.4l0,0.5c0,0.2,0,0.4,0.1,0.7c-0.1,0.7-0.3,1.6-1.2,2.4c-0.6,0.5-1.3,0.9-2.3,1.1
	c-5.6,1.2-9.3,6.6-8.3,12.2c0.1,0.4,0.1,0.7,0.1,1v54.2c0,3.5-3.3,6.5-7.2,6.5h-14.1c-3.9,0-7.2-3-7.2-6.5v-17.2v-12.5
	c0-15.3-12.8-27.7-28.4-27.7H79.2c-15.7,0-28.4,12.4-28.4,27.7v12.5v17.2c0,3.5-3.3,6.5-7.2,6.5H29.6c-3.9,0-7.2-3-7.2-6.5V98.6
	c0-0.2,0-0.6,0.1-1c1-5.6-2.7-11-8.3-12.2c-1-0.2-1.7-0.6-2.3-1.1c-0.1-0.1-0.4-0.4-0.8-1.1c-0.3-0.6-0.5-1.2-0.5-1.7
	c0-1.4,0.9-2.4,1.4-2.8c0.1-0.1,0.3-0.2,0.4-0.4l69.1-66.4C82.9,10.7,84.3,10.5,85.1,10.5 M85.1-0.1c-3.9,0-7.8,1.4-10.8,4.3
	L5.2,70.6c-3.1,2.7-5.1,6.6-5.1,10.9c0,2.5,0.7,4.8,1.9,6.8c0.7,1.3,1.6,2.6,2.7,3.6c2.1,2,4.7,3.2,7.4,3.8
	c-0.2,0.9-0.3,1.8-0.3,2.8v54.2c0,9.4,8,17.1,17.8,17.1h14.1c9.8,0,17.8-7.7,17.8-17.1v-17.2v-12.5c0-9.4,8-17.1,17.8-17.1H91
	c9.8,0,17.8,7.7,17.8,17.1v12.5v17.2c0,9.4,8,17.1,17.8,17.1h14.1c9.8,0,17.8-7.7,17.8-17.1V98.6c0-0.9-0.1-1.9-0.3-2.8
	c2.8-0.6,5.4-1.8,7.5-3.8c3-2.9,4.5-6.7,4.4-10.4c0,0,0,0,0,0c0-0.4-0.1-0.8-0.1-1.3c-0.1-0.5-0.1-1-0.2-1.5
	c-0.1-0.8-0.4-1.4-0.7-2.2c-0.1-0.2-0.1-0.4-0.2-0.6c-0.4-0.8-0.8-1.7-1.3-2.4c0,0,0-0.1-0.1-0.1c-0.6-0.9-1.4-1.8-2.2-2.6L96.8,5
	c-0.1-0.1-0.3-0.2-0.5-0.4c-0.1-0.1-0.2-0.3-0.4-0.4C93,1.3,89-0.1,85.1-0.1L85.1-0.1z"/>
</svg>
