<?xml version="1.0" encoding="utf-8"?>
<!-- Generator: Adobe Illustrator 25.0.0, SVG Export Plug-In . SVG Version: 6.00 Build 0)  -->
<svg version="1.1" id="Capa_1" xmlns="http://www.w3.org/2000/svg" xmlns:xlink="http://www.w3.org/1999/xlink" x="0px" y="0px"
	 viewBox="0 0 170 170" style="enable-background:new 0 0 170 170;" xml:space="preserve">
<style type="text/css">
	.st0{fill:#9588A6;}
</style>
<g id="Pages_Outline">
	<path class="st0" d="M102.8,64H53c-2.2,0-3.9,2.6-3.9,5.8s1.8,5.8,3.9,5.8h49.8c2.2,0,3.9-2.6,3.9-5.8S104.9,64,102.8,64z"/>
	<path class="st0" d="M102.8,87.1H53c-2.2,0-3.9,2.6-3.9,5.8s1.8,5.8,3.9,5.8h49.8c2.2,0,3.9-2.6,3.9-5.8S104.9,87.1,102.8,87.1z"/>
	<path class="st0" d="M102.8,110.1H53c-2.2,0-3.9,2.6-3.9,5.8s1.8,5.8,3.9,5.8h49.8c2.2,0,3.9-2.6,3.9-5.8S104.9,110.1,102.8,110.1z
		"/>
	<path class="st0" d="M135.5,128.2V33.7L102.4,0.6H41c-13,0-23.6,10.6-23.6,23.6v104c0,6.5,2.7,12.4,6.9,16.7s10.2,6.9,16.7,6.9
		h70.9C124.9,151.9,135.5,141.2,135.5,128.2z M106.3,19.5l16.2,16.2h-16.2C106.3,35.7,106.3,19.5,106.3,19.5z M31.8,137.4
		c-2.5-2.5-3.8-5.7-3.8-9.2v-104c0-7.2,5.8-13,13-13h54.8c-0.1,0.3-0.2,0.6-0.2,0.9V41c0,2.9,2.4,5.3,5.3,5.3h24v82
		c0,7.2-5.8,13-13,13H41C37.5,141.2,34.3,139.9,31.8,137.4z"/>
	<path class="st0" d="M147.5,40.4c-2.9,0-5.3,2.4-5.3,5.3v94.5c0,10.1-8.2,18.3-18.3,18.3H53c-2.9,0-5.3,2.4-5.3,5.3
		s2.4,5.3,5.3,5.3h70.9c16,0,28.9-13,28.9-28.9V45.7C152.8,42.8,150.4,40.4,147.5,40.4z"/>
</g>
</svg>
