<?xml version="1.0" encoding="utf-8"?>
<!-- Generator: Adobe Illustrator 25.0.0, SVG Export Plug-In . SVG Version: 6.00 Build 0)  -->
<svg version="1.1" id="Capa_1" xmlns="http://www.w3.org/2000/svg" xmlns:xlink="http://www.w3.org/1999/xlink" x="0px" y="0px"
	 viewBox="0 0 170 170" style="enable-background:new 0 0 170 170;" xml:space="preserve">
<style type="text/css">
	.st0{fill:#9588A6;}
</style>
<g id="Cart_Outline">
	<path class="st0" d="M164,62.4c-1-1.4-2.6-2.3-4.4-2.3H85.2c-2.9,0-5.3,2.4-5.3,5.3c0,2.9,2.4,5.3,5.3,5.3h66.7l-14.5,38.3H45
		l-5-67.4c-0.1-1.3-0.7-2.5-1.6-3.4L14.6,15c-2.1-2.1-5.5-2-7.5,0.1c-2.1,2.1-2,5.5,0.1,7.5l22.4,21.9l5.2,70.3
		c0.2,2.8,2.5,4.9,5.3,4.9h101.1c2.2,0,4.2-1.4,5-3.4l18.5-49C165.2,65.7,165,63.8,164,62.4z"/>
	<circle class="st0" cx="57.8" cy="141.7" r="15.2"/>
	<path class="st0" d="M125.1,126.6c-8.4,0-15.2,6.8-15.2,15.2c0,8.4,6.8,15.2,15.2,15.2s15.2-6.8,15.2-15.2
		C140.3,133.3,133.5,126.6,125.1,126.6z"/>
</g>
</svg>
