<?xml version="1.0" encoding="utf-8"?>
<!-- Generator: Adobe Illustrator 25.0.0, SVG Export Plug-In . SVG Version: 6.00 Build 0)  -->
<svg version="1.1" id="Capa_1" xmlns="http://www.w3.org/2000/svg" xmlns:xlink="http://www.w3.org/1999/xlink" x="0px" y="0px"
	 viewBox="0 0 170 170" style="enable-background:new 0 0 170 170;" xml:space="preserve">
<style type="text/css">
	.st0{fill:#9588A6;}
</style>
<g id="User_Outline">
	<path class="st0" d="M85.1,83.6c20.5,0,37.2-16.7,37.2-37.2S105.6,9.2,85.1,9.2S47.9,25.8,47.9,46.4C47.9,66.9,64.6,83.6,85.1,83.6
		z M85.1,19.8c14.7,0,26.6,11.9,26.6,26.6S99.7,72.9,85.1,72.9S58.5,61,58.5,46.4S70.4,19.8,85.1,19.8z"/>
	<path class="st0" d="M148.7,115.6c0-19.1-15.2-34.7-33.7-34.7H112c-7.2,7.2-16.9,11.6-27.7,11.6s-20.5-4.4-27.7-11.6h-1.5
		c-18.5,0-33.7,15.6-33.7,34.7l-2.8,45h132.8L148.7,115.6z M30,150l2.1-33.7c0-0.2,0-0.4,0-0.7c0-12.4,9.1-22.7,20.7-23.9
		c8.9,7.4,20,11.4,31.6,11.4c11.7,0,22.8-4.1,31.7-11.5c12.2,0.6,21.9,11.2,21.9,24.1c0,0.2,0,0.4,0,0.7l2.1,33.7L30,150L30,150z"/>
</g>
</svg>
