<?xml version="1.0" encoding="utf-8"?>
<!-- Generator: Adobe Illustrator 25.0.0, SVG Export Plug-In . SVG Version: 6.00 Build 0)  -->
<svg version="1.1" id="Capa_1" xmlns="http://www.w3.org/2000/svg" xmlns:xlink="http://www.w3.org/1999/xlink" x="0px" y="0px"
	 viewBox="0 0 170 170" style="enable-background:new 0 0 170 170;" xml:space="preserve">
<style type="text/css">
	.st0{fill:#6D5D82;}
</style>
<g>
	<path class="st0" d="M59.2,69.1c0.8-3.8,1.2-6,1.7-8.1c4.6-19.7,16.4-33.4,35.7-39.5c19.6-6.2,37.5-1.9,52.6,12.4
		c9.6,9.1,17,19.6,19.9,32.8c2,8.9,0.6,17.2-4.5,24.9c-11.5,17.3-24.2,33.6-40.9,46.2c-8.1,6.1-17.1,10.6-27.2,12.6
		c-12.1,2.4-23.4-0.2-34.2-5.5c-16.7-8.2-29.7-21.1-41.9-34.8c-5.2-5.9-10.2-12-14.8-18.3c-9.3-13-6.7-30.2,5.7-39.2
		c12.6-9.3,29.7-6.6,39.6,6.2C53.3,61.8,55.7,64.8,59.2,69.1z M93.3,104.1c-5,4.4-10.4,5.7-15.8,2.7c-6.2-3.5-12.6-7.2-17.6-12.2
		c-9.5-9.3-18-19.6-26.8-29.5c-4.5-5.1-10.5-6.4-15.4-2.8c-4.9,3.6-6.1,9.7-2.3,15c13.2,18,27.7,34.9,47.3,46.2
		c5.7,3.3,12.7,5.2,19.2,6.1c11.6,1.5,21.2-4.5,29.8-11.4c14.2-11.3,25.3-25.4,34.8-40.7c1.7-2.7,2.2-6.9,1.7-10.2
		c-1.3-9.1-6.6-16.3-12.8-22.9C121.1,29,99.2,27.9,84.2,41.8c-14.4,13.3-15,35.2-1.3,50.7C86.3,96.2,89.7,100,93.3,104.1z"/>
	<path class="st0" d="M94.9,68.7c0-11.4,11.2-18.1,20.4-13c9.6,5.3,11.4,13.3,4.9,21.9c-2.3,3-4.6,6-7.1,8.7
		c-0.8,0.9-3.4,1.6-3.8,1.1c-4.7-5.1-9.3-10.3-13.7-15.6C94.8,70.8,95,69.2,94.9,68.7z"/>
</g>
</svg>
